<mxfile host="65bd71144e">
    <diagram id="_45znqR_parI-b0OOBPH" name="Page-1">
        <mxGraphModel dx="1987" dy="827" grid="1" gridSize="10" guides="1" tooltips="1" connect="1" arrows="1" fold="1" page="1" pageScale="1" pageWidth="850" pageHeight="1100" math="0" shadow="0">
            <root>
                <mxCell id="0"/>
                <mxCell id="1" parent="0"/>
                <mxCell id="45" value="" style="rounded=0;whiteSpace=wrap;html=1;fillColor=none;dashed=1;strokeColor=default;" parent="1" vertex="1">
                    <mxGeometry x="710" y="1170" width="550" height="840" as="geometry"/>
                </mxCell>
                <mxCell id="24" value="" style="rounded=0;whiteSpace=wrap;html=1;fillColor=none;dashed=1;strokeColor=default;" parent="1" vertex="1">
                    <mxGeometry x="80" y="180" width="550" height="840" as="geometry"/>
                </mxCell>
                <mxCell id="7" value="Capture" style="text;html=1;align=center;verticalAlign=middle;resizable=0;points=[];autosize=1;strokeColor=none;fillColor=none;" parent="1" vertex="1">
                    <mxGeometry x="110" y="210" width="70" height="30" as="geometry"/>
                </mxCell>
                <mxCell id="16" style="edgeStyle=none;html=1;entryX=0.5;entryY=0;entryDx=0;entryDy=0;exitX=0.5;exitY=1;exitDx=0;exitDy=0;" parent="1" source="46" target="15" edge="1">
                    <mxGeometry relative="1" as="geometry">
                        <mxPoint x="570" y="1390" as="sourcePoint"/>
                    </mxGeometry>
                </mxCell>
                <mxCell id="13" value="Display" style="text;html=1;align=center;verticalAlign=middle;resizable=0;points=[];autosize=1;strokeColor=none;fillColor=none;" parent="1" vertex="1">
                    <mxGeometry x="725" y="1195" width="60" height="30" as="geometry"/>
                </mxCell>
                <mxCell id="15" value="&lt;div style=&quot;color: rgb(204, 204, 204); background-color: rgb(31, 31, 31); font-family: &amp;quot;Droid Sans Mono&amp;quot;, &amp;quot;monospace&amp;quot;, monospace; font-size: 14px; line-height: 19px;&quot;&gt;&lt;span style=&quot;color: #9cdcfe;&quot;&gt;wayland&lt;/span&gt;.&lt;span style=&quot;color: #dcdcaa;&quot;&gt;commit&lt;/span&gt;(&lt;span style=&quot;color: #9cdcfe;&quot;&gt;img&lt;/span&gt;.&lt;span style=&quot;color: #dcdcaa;&quot;&gt;get_img&lt;/span&gt;(&lt;span style=&quot;color: #9cdcfe;&quot;&gt;buf_id&lt;/span&gt;), &lt;span style=&quot;color: #569cd6;&quot;&gt;NULL&lt;/span&gt;);&lt;/div&gt;" style="rounded=0;whiteSpace=wrap;html=1;" parent="1" vertex="1">
                    <mxGeometry x="815" y="1360" width="310" height="60" as="geometry"/>
                </mxCell>
                <mxCell id="29" value="" style="edgeStyle=none;html=1;" parent="1" source="17" target="28" edge="1">
                    <mxGeometry relative="1" as="geometry"/>
                </mxCell>
                <mxCell id="17" value="set&amp;nbsp;&lt;span style=&quot;color: rgb(156, 220, 254); background-color: rgb(31, 31, 31); font-family: &amp;quot;Droid Sans Mono&amp;quot;, &amp;quot;monospace&amp;quot;, monospace; font-size: 14px;&quot;&gt;inference_start&lt;/span&gt;" style="whiteSpace=wrap;html=1;" parent="1" vertex="1">
                    <mxGeometry x="272.5" y="520" width="165" height="40" as="geometry"/>
                </mxCell>
                <mxCell id="19" value="" style="edgeStyle=none;html=1;startArrow=none;" parent="1" source="26" target="17" edge="1">
                    <mxGeometry relative="1" as="geometry"/>
                </mxCell>
                <mxCell id="18" value="&lt;div style=&quot;color: rgb(204, 204, 204); background-color: rgb(31, 31, 31); font-family: &amp;quot;Droid Sans Mono&amp;quot;, &amp;quot;monospace&amp;quot;, monospace; font-size: 14px; line-height: 19px;&quot;&gt;&lt;span style=&quot;color: #9cdcfe;&quot;&gt;img_buffer&lt;/span&gt; &lt;span style=&quot;color: #d4d4d4;&quot;&gt;=&lt;/span&gt; &lt;span style=&quot;color: #9cdcfe;&quot;&gt;capture&lt;/span&gt;-&amp;gt;&lt;span style=&quot;color: #dcdcaa;&quot;&gt;get_img&lt;/span&gt;()&lt;/div&gt;" style="whiteSpace=wrap;html=1;" parent="1" vertex="1">
                    <mxGeometry x="220" y="230" width="270" height="60" as="geometry"/>
                </mxCell>
                <mxCell id="39" style="edgeStyle=orthogonalEdgeStyle;curved=1;html=1;exitX=0.5;exitY=1;exitDx=0;exitDy=0;entryX=0;entryY=0.5;entryDx=0;entryDy=0;" parent="1" source="20" target="18" edge="1">
                    <mxGeometry relative="1" as="geometry">
                        <Array as="points">
                            <mxPoint x="355" y="910"/>
                            <mxPoint x="100" y="910"/>
                            <mxPoint x="100" y="260"/>
                        </Array>
                    </mxGeometry>
                </mxCell>
                <mxCell id="20" value="set&amp;nbsp;&amp;nbsp;&lt;span style=&quot;color: rgb(156, 220, 254); background-color: rgb(31, 31, 31); font-family: &amp;quot;Droid Sans Mono&amp;quot;, &amp;quot;monospace&amp;quot;, monospace; font-size: 14px;&quot;&gt;img_obj_ready&lt;/span&gt;" style="whiteSpace=wrap;html=1;" parent="1" vertex="1">
                    <mxGeometry x="280" y="790" width="150" height="40" as="geometry"/>
                </mxCell>
                <mxCell id="23" value="" style="edgeStyle=none;html=1;endArrow=none;" parent="1" source="18" target="22" edge="1">
                    <mxGeometry relative="1" as="geometry">
                        <mxPoint x="355" y="290" as="sourcePoint"/>
                        <mxPoint x="355" y="460" as="targetPoint"/>
                    </mxGeometry>
                </mxCell>
                <mxCell id="22" value="not set&amp;nbsp;&lt;span style=&quot;color: rgb(156, 220, 254); background-color: rgb(31, 31, 31); font-family: &amp;quot;Droid Sans Mono&amp;quot;, &amp;quot;monospace&amp;quot;, monospace; font-size: 14px;&quot;&gt;inference_start&lt;/span&gt;" style="rhombus;whiteSpace=wrap;html=1;" parent="1" vertex="1">
                    <mxGeometry x="223.75" y="320" width="262.5" height="80" as="geometry"/>
                </mxCell>
                <mxCell id="27" value="" style="edgeStyle=none;html=1;startArrow=none;endArrow=none;" parent="1" source="22" target="26" edge="1">
                    <mxGeometry relative="1" as="geometry">
                        <mxPoint x="355.0000000000001" y="420" as="sourcePoint"/>
                        <mxPoint x="355.0000000000001" y="640" as="targetPoint"/>
                    </mxGeometry>
                </mxCell>
                <mxCell id="26" value="copy buffer&amp;nbsp;&lt;span style=&quot;font-family: &amp;quot;Droid Sans Mono&amp;quot;, &amp;quot;monospace&amp;quot;, monospace; font-size: 14px; color: rgb(156, 220, 254);&quot;&gt;capture&lt;/span&gt;&lt;span style=&quot;background-color: rgb(31, 31, 31); color: rgb(204, 204, 204); font-family: &amp;quot;Droid Sans Mono&amp;quot;, &amp;quot;monospace&amp;quot;, monospace; font-size: 14px;&quot;&gt;-&amp;gt;&lt;/span&gt;&lt;span style=&quot;font-family: &amp;quot;Droid Sans Mono&amp;quot;, &amp;quot;monospace&amp;quot;, monospace; font-size: 14px; color: rgb(220, 220, 170);&quot;&gt;get_img&lt;/span&gt;&lt;span style=&quot;background-color: rgb(31, 31, 31); color: rgb(204, 204, 204); font-family: &amp;quot;Droid Sans Mono&amp;quot;, &amp;quot;monospace&amp;quot;, monospace; font-size: 14px;&quot;&gt;()&lt;br&gt;&lt;/span&gt;&lt;span style=&quot;background-color: initial;&quot;&gt;to&amp;nbsp;&lt;/span&gt;&lt;span style=&quot;background-color: initial; font-family: &amp;quot;Droid Sans Mono&amp;quot;, &amp;quot;monospace&amp;quot;, monospace; font-size: 14px; color: rgb(156, 220, 254);&quot;&gt;capture&lt;/span&gt;&lt;span style=&quot;background-color: rgb(31, 31, 31); color: rgb(204, 204, 204); font-family: &amp;quot;Droid Sans Mono&amp;quot;, &amp;quot;monospace&amp;quot;, monospace; font-size: 14px;&quot;&gt;-&amp;gt;&lt;/span&gt;&lt;span style=&quot;background-color: initial; font-family: &amp;quot;Droid Sans Mono&amp;quot;, &amp;quot;monospace&amp;quot;, monospace; font-size: 14px; color: rgb(156, 220, 254);&quot;&gt;drpai_buf&lt;/span&gt;" style="rounded=0;whiteSpace=wrap;html=1;strokeColor=default;fillColor=default;" parent="1" vertex="1">
                    <mxGeometry x="228.75" y="430" width="252.5" height="60" as="geometry"/>
                </mxCell>
                <mxCell id="31" value="" style="edgeStyle=none;html=1;" parent="1" source="28" target="30" edge="1">
                    <mxGeometry relative="1" as="geometry"/>
                </mxCell>
                <mxCell id="36" style="edgeStyle=orthogonalEdgeStyle;html=1;exitX=1;exitY=0.5;exitDx=0;exitDy=0;entryX=0;entryY=0.5;entryDx=0;entryDy=0;curved=1;dashed=1;" parent="1" source="20" target="35" edge="1">
                    <mxGeometry relative="1" as="geometry"/>
                </mxCell>
                <mxCell id="51" style="edgeStyle=orthogonalEdgeStyle;curved=1;html=1;exitX=0;exitY=0.5;exitDx=0;exitDy=0;entryX=1;entryY=0.5;entryDx=0;entryDy=0;dashed=1;" parent="1" source="28" target="50" edge="1">
                    <mxGeometry relative="1" as="geometry">
                        <Array as="points">
                            <mxPoint x="-80" y="630"/>
                            <mxPoint x="-80" y="290"/>
                        </Array>
                    </mxGeometry>
                </mxCell>
                <mxCell id="28" value="not set&amp;nbsp;&lt;span style=&quot;color: rgb(156, 220, 254); background-color: rgb(31, 31, 31); font-family: &amp;quot;Droid Sans Mono&amp;quot;, &amp;quot;monospace&amp;quot;, monospace; font-size: 14px;&quot;&gt;img_obj_ready&lt;/span&gt;" style="rhombus;whiteSpace=wrap;html=1;" parent="1" vertex="1">
                    <mxGeometry x="223.75" y="590" width="262.5" height="80" as="geometry"/>
                </mxCell>
                <mxCell id="32" value="" style="edgeStyle=none;html=1;" parent="1" source="30" target="20" edge="1">
                    <mxGeometry relative="1" as="geometry"/>
                </mxCell>
                <mxCell id="30" value="copy buffer&amp;nbsp;&lt;span style=&quot;font-family: &amp;quot;Droid Sans Mono&amp;quot;, &amp;quot;monospace&amp;quot;, monospace; font-size: 14px; color: rgb(156, 220, 254);&quot;&gt;capture&lt;/span&gt;&lt;span style=&quot;background-color: rgb(31, 31, 31); color: rgb(204, 204, 204); font-family: &amp;quot;Droid Sans Mono&amp;quot;, &amp;quot;monospace&amp;quot;, monospace; font-size: 14px;&quot;&gt;-&amp;gt;&lt;/span&gt;&lt;span style=&quot;font-family: &amp;quot;Droid Sans Mono&amp;quot;, &amp;quot;monospace&amp;quot;, monospace; font-size: 14px; color: rgb(220, 220, 170);&quot;&gt;get_img&lt;/span&gt;&lt;span style=&quot;background-color: rgb(31, 31, 31); color: rgb(204, 204, 204); font-family: &amp;quot;Droid Sans Mono&amp;quot;, &amp;quot;monospace&amp;quot;, monospace; font-size: 14px;&quot;&gt;()&lt;br&gt;&lt;/span&gt;&lt;span style=&quot;background-color: initial;&quot;&gt;to&amp;nbsp;&lt;/span&gt;&lt;span style=&quot;color: rgb(156, 220, 254); background-color: rgb(31, 31, 31); font-family: &amp;quot;Droid Sans Mono&amp;quot;, &amp;quot;monospace&amp;quot;, monospace; font-size: 14px;&quot;&gt;img&lt;/span&gt;&lt;span style=&quot;background-color: rgb(31, 31, 31); font-family: &amp;quot;Droid Sans Mono&amp;quot;, &amp;quot;monospace&amp;quot;, monospace; font-size: 14px;&quot;&gt;&lt;font color=&quot;#cccccc&quot;&gt;.&lt;/font&gt;&lt;/span&gt;&lt;span style=&quot;color: rgb(156, 220, 254); background-color: rgb(31, 31, 31); font-family: &amp;quot;Droid Sans Mono&amp;quot;, &amp;quot;monospace&amp;quot;, monospace; font-size: 14px;&quot;&gt;img_buffer[0 or 1]&lt;/span&gt;" style="rounded=0;whiteSpace=wrap;html=1;strokeColor=default;fillColor=default;" parent="1" vertex="1">
                    <mxGeometry x="214.37" y="700" width="281.25" height="60" as="geometry"/>
                </mxCell>
                <mxCell id="33" value="" style="rounded=0;whiteSpace=wrap;html=1;fillColor=none;dashed=1;strokeColor=default;" parent="1" vertex="1">
                    <mxGeometry x="740" y="180" width="550" height="840" as="geometry"/>
                </mxCell>
                <mxCell id="34" value="Img" style="text;html=1;align=center;verticalAlign=middle;resizable=0;points=[];autosize=1;strokeColor=none;fillColor=none;" parent="1" vertex="1">
                    <mxGeometry x="785" y="210" width="40" height="30" as="geometry"/>
                </mxCell>
                <mxCell id="38" value="" style="edgeStyle=orthogonalEdgeStyle;curved=1;html=1;" parent="1" source="35" target="37" edge="1">
                    <mxGeometry relative="1" as="geometry"/>
                </mxCell>
                <mxCell id="35" value="set&amp;nbsp;&lt;span style=&quot;color: rgb(156, 220, 254); background-color: rgb(31, 31, 31); font-family: &amp;quot;Droid Sans Mono&amp;quot;, &amp;quot;monospace&amp;quot;, monospace; font-size: 14px;&quot;&gt;img_obj_ready&lt;/span&gt;" style="rhombus;whiteSpace=wrap;html=1;strokeColor=default;fillColor=default;" parent="1" vertex="1">
                    <mxGeometry x="890" y="250" width="210" height="80" as="geometry"/>
                </mxCell>
                <mxCell id="41" value="" style="edgeStyle=orthogonalEdgeStyle;curved=1;html=1;" parent="1" source="37" target="40" edge="1">
                    <mxGeometry relative="1" as="geometry"/>
                </mxCell>
                <mxCell id="37" value="&lt;div style=&quot;color: rgb(204, 204, 204); background-color: rgb(31, 31, 31); font-family: &amp;quot;Droid Sans Mono&amp;quot;, &amp;quot;monospace&amp;quot;, monospace; font-size: 14px; line-height: 19px;&quot;&gt;&lt;span style=&quot;color: #9cdcfe;&quot;&gt;img&lt;/span&gt;.&lt;span style=&quot;color: #dcdcaa;&quot;&gt;convert_format&lt;/span&gt;()&lt;/div&gt;&lt;div style=&quot;color: rgb(204, 204, 204); background-color: rgb(31, 31, 31); font-family: &amp;quot;Droid Sans Mono&amp;quot;, &amp;quot;monospace&amp;quot;, monospace; font-size: 14px; line-height: 19px;&quot;&gt;&lt;div style=&quot;line-height: 19px;&quot;&gt;&lt;span style=&quot;color: #9cdcfe;&quot;&gt;img&lt;/span&gt;.&lt;span style=&quot;color: #dcdcaa;&quot;&gt;convert_size&lt;/span&gt;(&lt;span style=&quot;color: #569cd6;&quot;&gt;CAM_IMAGE_WIDTH&lt;/span&gt;, &lt;span style=&quot;color: #569cd6;&quot;&gt;DRPAI_OUT_WIDTH&lt;/span&gt;, &lt;span style=&quot;color: #9cdcfe;&quot;&gt;padding&lt;/span&gt;)&lt;/div&gt;&lt;div style=&quot;line-height: 19px;&quot;&gt;&lt;div style=&quot;line-height: 19px;&quot;&gt;&lt;span style=&quot;color: #dcdcaa;&quot;&gt;draw_bounding_box&lt;/span&gt;()&lt;/div&gt;&lt;div style=&quot;line-height: 19px;&quot;&gt;&lt;div style=&quot;line-height: 19px;&quot;&gt;&lt;span style=&quot;color: #dcdcaa;&quot;&gt;print_result&lt;/span&gt;(&lt;span style=&quot;color: #d4d4d4;&quot;&gt;&amp;amp;&lt;/span&gt;&lt;span style=&quot;color: #9cdcfe;&quot;&gt;img&lt;/span&gt;)&lt;/div&gt;&lt;/div&gt;&lt;/div&gt;&lt;/div&gt;" style="rounded=0;whiteSpace=wrap;html=1;strokeColor=default;fillColor=default;" parent="1" vertex="1">
                    <mxGeometry x="850" y="380" width="290" height="110" as="geometry"/>
                </mxCell>
                <mxCell id="43" value="" style="edgeStyle=orthogonalEdgeStyle;curved=1;html=1;" parent="1" source="40" target="42" edge="1">
                    <mxGeometry relative="1" as="geometry"/>
                </mxCell>
                <mxCell id="40" value="clear&amp;nbsp;&amp;nbsp;&lt;span style=&quot;color: rgb(156, 220, 254); background-color: rgb(31, 31, 31); font-family: &amp;quot;Droid Sans Mono&amp;quot;, &amp;quot;monospace&amp;quot;, monospace; font-size: 14px;&quot;&gt;img_obj_ready&lt;/span&gt;" style="whiteSpace=wrap;html=1;" parent="1" vertex="1">
                    <mxGeometry x="905" y="530" width="180" height="40" as="geometry"/>
                </mxCell>
                <mxCell id="44" style="edgeStyle=orthogonalEdgeStyle;curved=1;html=1;exitX=1;exitY=0.5;exitDx=0;exitDy=0;entryX=1;entryY=0.5;entryDx=0;entryDy=0;" parent="1" source="42" target="35" edge="1">
                    <mxGeometry relative="1" as="geometry">
                        <Array as="points">
                            <mxPoint x="1230" y="630"/>
                            <mxPoint x="1230" y="290"/>
                        </Array>
                    </mxGeometry>
                </mxCell>
                <mxCell id="47" style="edgeStyle=orthogonalEdgeStyle;curved=1;html=1;exitX=0.5;exitY=1;exitDx=0;exitDy=0;entryX=0.5;entryY=0;entryDx=0;entryDy=0;dashed=1;" parent="1" source="42" target="46" edge="1">
                    <mxGeometry relative="1" as="geometry">
                        <Array as="points">
                            <mxPoint x="970" y="650"/>
                        </Array>
                    </mxGeometry>
                </mxCell>
                <mxCell id="42" value="set&amp;nbsp;&amp;nbsp;&lt;span style=&quot;color: rgb(156, 220, 254); background-color: rgb(31, 31, 31); font-family: &amp;quot;Droid Sans Mono&amp;quot;, &amp;quot;monospace&amp;quot;, monospace; font-size: 14px;&quot;&gt;hdmi_obj_ready&lt;/span&gt;" style="whiteSpace=wrap;html=1;" parent="1" vertex="1">
                    <mxGeometry x="915" y="610" width="160" height="40" as="geometry"/>
                </mxCell>
                <mxCell id="46" value="set&amp;nbsp;&amp;nbsp;&lt;span style=&quot;color: rgb(156, 220, 254); background-color: rgb(31, 31, 31); font-family: &amp;quot;Droid Sans Mono&amp;quot;, &amp;quot;monospace&amp;quot;, monospace; font-size: 14px;&quot;&gt;hdmi_obj_ready&lt;/span&gt;" style="rhombus;whiteSpace=wrap;html=1;strokeColor=default;fillColor=default;" parent="1" vertex="1">
                    <mxGeometry x="865" y="1240" width="210" height="80" as="geometry"/>
                </mxCell>
                <mxCell id="48" value="" style="rounded=0;whiteSpace=wrap;html=1;fillColor=none;dashed=1;strokeColor=default;" parent="1" vertex="1">
                    <mxGeometry x="-580" y="180" width="550" height="840" as="geometry"/>
                </mxCell>
                <mxCell id="49" value="Inference" style="text;html=1;align=center;verticalAlign=middle;resizable=0;points=[];autosize=1;strokeColor=none;fillColor=none;" parent="1" vertex="1">
                    <mxGeometry x="-550" y="210" width="70" height="30" as="geometry"/>
                </mxCell>
                <mxCell id="54" value="" style="edgeStyle=orthogonalEdgeStyle;curved=1;html=1;dashed=1;" parent="1" source="50" target="53" edge="1">
                    <mxGeometry relative="1" as="geometry"/>
                </mxCell>
                <mxCell id="50" value="wait&amp;nbsp;&lt;span style=&quot;color: rgb(156, 220, 254); background-color: rgb(31, 31, 31); font-family: &amp;quot;Droid Sans Mono&amp;quot;, &amp;quot;monospace&amp;quot;, monospace; font-size: 14px;&quot;&gt;inference_start&lt;/span&gt;" style="rounded=0;whiteSpace=wrap;html=1;strokeColor=default;fillColor=default;" parent="1" vertex="1">
                    <mxGeometry x="-440" y="270" width="195" height="40" as="geometry"/>
                </mxCell>
                <mxCell id="57" value="" style="edgeStyle=orthogonalEdgeStyle;curved=1;html=1;dashed=1;" parent="1" source="52" target="56" edge="1">
                    <mxGeometry relative="1" as="geometry"/>
                </mxCell>
                <mxCell id="52" value="&lt;div style=&quot;color: rgb(204, 204, 204); background-color: rgb(31, 31, 31); font-family: &amp;quot;Droid Sans Mono&amp;quot;, &amp;quot;monospace&amp;quot;, monospace; font-size: 14px; line-height: 19px;&quot;&gt;&lt;span style=&quot;color: rgb(156, 220, 254);&quot;&gt;preruntime&lt;/span&gt;.&lt;span style=&quot;color: rgb(220, 220, 170);&quot;&gt;Pre&lt;/span&gt;(&lt;span style=&quot;color: rgb(212, 212, 212);&quot;&gt;&amp;amp;&lt;/span&gt;&lt;span style=&quot;color: rgb(156, 220, 254);&quot;&gt;in_param&lt;/span&gt;, &lt;span style=&quot;color: rgb(212, 212, 212);&quot;&gt;&amp;amp;&lt;/span&gt;&lt;span style=&quot;color: rgb(156, 220, 254);&quot;&gt;output_ptr&lt;/span&gt;, &lt;span style=&quot;color: rgb(212, 212, 212);&quot;&gt;&amp;amp;&lt;/span&gt;&lt;span style=&quot;color: rgb(156, 220, 254);&quot;&gt;out_size&lt;/span&gt;)&lt;br&gt;&lt;/div&gt;" style="rounded=0;whiteSpace=wrap;html=1;strokeColor=default;fillColor=default;" parent="1" vertex="1">
                    <mxGeometry x="-460" y="440" width="235" height="60" as="geometry"/>
                </mxCell>
                <mxCell id="55" value="" style="edgeStyle=orthogonalEdgeStyle;curved=1;html=1;dashed=1;" parent="1" source="53" target="52" edge="1">
                    <mxGeometry relative="1" as="geometry"/>
                </mxCell>
                <mxCell id="53" value="&lt;div style=&quot;color: rgb(204, 204, 204); background-color: rgb(31, 31, 31); font-family: &amp;quot;Droid Sans Mono&amp;quot;, &amp;quot;monospace&amp;quot;, monospace; font-size: 14px; line-height: 19px;&quot;&gt;&lt;span style=&quot;color: #9cdcfe;&quot;&gt;in_param&lt;/span&gt;.&lt;span style=&quot;color: #9cdcfe;&quot;&gt;pre_in_addr&lt;/span&gt;    &lt;span style=&quot;color: #d4d4d4;&quot;&gt;=&lt;/span&gt; &lt;span style=&quot;color: #9cdcfe;&quot;&gt;capture_address&lt;/span&gt;&lt;/div&gt;" style="shape=parallelogram;perimeter=parallelogramPerimeter;whiteSpace=wrap;html=1;fixedSize=1;strokeColor=default;fillColor=default;" parent="1" vertex="1">
                    <mxGeometry x="-453.75" y="350" width="222.5" height="60" as="geometry"/>
                </mxCell>
                <mxCell id="59" value="" style="edgeStyle=orthogonalEdgeStyle;curved=1;html=1;dashed=1;" parent="1" source="56" target="58" edge="1">
                    <mxGeometry relative="1" as="geometry"/>
                </mxCell>
                <mxCell id="56" value="&lt;div style=&quot;color: rgb(204, 204, 204); background-color: rgb(31, 31, 31); font-family: &amp;quot;Droid Sans Mono&amp;quot;, &amp;quot;monospace&amp;quot;, monospace; font-size: 14px; line-height: 19px;&quot;&gt;&lt;span style=&quot;color: #9cdcfe;&quot;&gt;runtime&lt;/span&gt;.&lt;span style=&quot;color: #dcdcaa;&quot;&gt;SetInput&lt;/span&gt;(&lt;span style=&quot;color: #b5cea8;&quot;&gt;0&lt;/span&gt;, (&lt;span style=&quot;color: #569cd6;&quot;&gt;float&lt;/span&gt;&lt;span style=&quot;color: #d4d4d4;&quot;&gt;*&lt;/span&gt;)&lt;span style=&quot;color: #9cdcfe;&quot;&gt;output_ptr&lt;/span&gt;)&lt;/div&gt;" style="rounded=0;whiteSpace=wrap;html=1;strokeColor=default;fillColor=default;" parent="1" vertex="1">
                    <mxGeometry x="-516.87" y="550" width="348.75" height="40" as="geometry"/>
                </mxCell>
                <mxCell id="61" value="" style="edgeStyle=orthogonalEdgeStyle;curved=1;html=1;dashed=1;" parent="1" source="58" target="60" edge="1">
                    <mxGeometry relative="1" as="geometry"/>
                </mxCell>
                <mxCell id="58" value="&lt;div style=&quot;color: rgb(204, 204, 204); background-color: rgb(31, 31, 31); font-family: &amp;quot;Droid Sans Mono&amp;quot;, &amp;quot;monospace&amp;quot;, monospace; font-size: 14px; line-height: 19px;&quot;&gt;&lt;span style=&quot;color: #9cdcfe;&quot;&gt;runtime&lt;/span&gt;.&lt;span style=&quot;color: #dcdcaa;&quot;&gt;Run&lt;/span&gt;(&lt;span style=&quot;color: #9cdcfe;&quot;&gt;drpai_freq&lt;/span&gt;)&lt;/div&gt;" style="rounded=0;whiteSpace=wrap;html=1;strokeColor=default;fillColor=default;" parent="1" vertex="1">
                    <mxGeometry x="-447.5" y="640" width="210" height="40" as="geometry"/>
                </mxCell>
                <mxCell id="63" value="" style="edgeStyle=orthogonalEdgeStyle;curved=1;html=1;dashed=1;" parent="1" source="60" target="62" edge="1">
                    <mxGeometry relative="1" as="geometry"/>
                </mxCell>
                <mxCell id="60" value="clear&amp;nbsp;&lt;span style=&quot;color: rgb(156, 220, 254); background-color: rgb(31, 31, 31); font-family: &amp;quot;Droid Sans Mono&amp;quot;, &amp;quot;monospace&amp;quot;, monospace; font-size: 14px;&quot;&gt;inference_start&lt;/span&gt;" style="rounded=0;whiteSpace=wrap;html=1;strokeColor=default;fillColor=default;" parent="1" vertex="1">
                    <mxGeometry x="-440" y="720" width="195" height="40" as="geometry"/>
                </mxCell>
                <mxCell id="64" style="edgeStyle=orthogonalEdgeStyle;curved=1;html=1;exitX=0.5;exitY=1;exitDx=0;exitDy=0;entryX=0;entryY=0.5;entryDx=0;entryDy=0;" parent="1" source="62" target="50" edge="1">
                    <mxGeometry relative="1" as="geometry">
                        <Array as="points">
                            <mxPoint x="-342" y="940"/>
                            <mxPoint x="-560" y="940"/>
                            <mxPoint x="-560" y="290"/>
                        </Array>
                    </mxGeometry>
                </mxCell>
                <mxCell id="62" value="&lt;div style=&quot;color: rgb(204, 204, 204); background-color: rgb(31, 31, 31); font-family: &amp;quot;Droid Sans Mono&amp;quot;, &amp;quot;monospace&amp;quot;, monospace; font-size: 14px; line-height: 19px;&quot;&gt;&lt;span style=&quot;color: #dcdcaa;&quot;&gt;R_Post_Proc&lt;/span&gt;(&lt;span style=&quot;color: #9cdcfe;&quot;&gt;drpai_output_buf&lt;/span&gt;)&lt;/div&gt;" style="rounded=0;whiteSpace=wrap;html=1;strokeColor=default;fillColor=default;" parent="1" vertex="1">
                    <mxGeometry x="-478.75" y="800" width="272.5" height="60" as="geometry"/>
                </mxCell>
            </root>
        </mxGraphModel>
    </diagram>
</mxfile>